<?xml version="1.0" encoding="utf-8"?>
<svg width="1000" height="1000" viewBox="0 0 1000 1000" xmlns="http://www.w3.org/2000/svg">
  <rect width="1021" height="1014" fill="rgb(109, 148, 124)" style=""/>
  <path d="M 65.233 348.051 L 129.057 381.254 L 129.057 447.659 L 65.233 480.861 L 1.409 447.659 L 1.409 381.254 Z" fill="rgba(148, 201, 169, 0.55)"/>
  <path d="M 151.216 271.665 L 215.04 304.868 L 215.04 371.273 L 151.216 404.475 L 87.392 371.273 L 87.392 304.868 Z" fill="rgba(148, 201, 169, 0.55)"/>
  <path d="M 215 268.051 L 278.824 301.254 L 278.824 367.659 L 215 400.861 L 151.176 367.659 L 151.176 301.254 Z" fill="rgba(148, 201, 169, 0.55)"/>
  <path d="M 292.428 345.127 L 356.252 378.33 L 356.252 444.735 L 292.428 477.937 L 228.604 444.735 L 228.604 378.33 L 292.428 345.127 Z" fill="rgba(148, 201, 169, 0.55)"/>
  <path d="M 115 388.051 L 178.824 421.254 L 178.824 487.659 L 115 520.861 L 51.176 487.659 L 51.176 421.254 Z" fill="rgba(148, 201, 169, 0.55)"/>
  <path d="M 50.486 195.607 L 114.31 228.81 L 114.31 295.215 L 50.486 328.417 L -13.338 295.215 L -13.338 228.81 L 50.486 195.607 Z" fill="rgba(148, 201, 169, 0.55)"/>
  <path d="M 207.209 448.094 L 271.033 481.297 L 271.033 547.702 L 207.209 580.904 L 143.385 547.702 L 143.385 481.297 L 207.209 448.094 Z" fill="rgba(148, 201, 169, 0.55)"/>
  <path d="M 381.142 79.396 L 444.966 112.599 L 444.966 179.004 L 381.142 212.206 L 317.318 179.004 L 317.318 112.599 L 381.142 79.396 Z" fill="rgba(148, 201, 169, 0.55)"/>
  <path d="M 640 98.051 L 703.824 131.254 L 703.824 197.659 L 640 230.861 L 576.176 197.659 L 576.176 131.254 Z" fill="rgba(148, 201, 169, 0.55)"/>
  <path d="M 365 218.051 L 428.824 251.254 L 428.824 317.659 L 365 350.861 L 301.176 317.659 L 301.176 251.254 Z" fill="rgba(148, 201, 169, 0.55)"/>
  <path d="M 515 278.051 L 578.824 311.254 L 578.824 377.659 L 515 410.861 L 451.176 377.659 L 451.176 311.254 Z" fill="rgba(148, 201, 169, 0.55)"/>
  <path d="M 665 338.051 L 728.824 371.254 L 728.824 437.659 L 665 470.861 L 601.176 437.659 L 601.176 371.254 Z" fill="rgba(148, 201, 169, 0.55)"/>
  <path d="M 415 398.051 L 478.824 431.254 L 478.824 497.659 L 415 530.861 L 351.176 497.659 L 351.176 431.254 Z" fill="rgba(148, 201, 169, 0.55)"/>
  <path d="M 116.761 48.723 L 180.585 81.926 L 180.585 148.331 L 116.761 181.533 L 52.937 148.331 L 52.937 81.926 L 116.761 48.723 Z" fill="rgba(148, 201, 169, 0.55)"/>
  <path d="M 822.088 63.517 L 885.912 96.72 L 885.912 163.125 L 822.088 196.327 L 758.264 163.125 L 758.264 96.72 L 822.088 63.517 Z" fill="rgba(148, 201, 169, 0.55)"/>
  <path d="M 465 218.051 L 528.824 251.254 L 528.824 317.659 L 465 350.861 L 401.176 317.659 L 401.176 251.254 Z" fill="rgba(148, 201, 169, 0.55)"/>
  <path d="M 615 378.051 L 678.824 411.254 L 678.824 477.659 L 615 510.861 L 551.176 477.659 L 551.176 411.254 Z" fill="rgba(148, 201, 169, 0.55)"/>
  <path d="M 527.006 50.185 L 590.83 83.388 L 590.83 149.793 L 527.006 182.995 L 463.182 149.793 L 463.182 83.388 L 527.006 50.185 Z" fill="rgba(148, 201, 169, 0.55)"/>
  <path d="M 85 508.051 L 148.824 541.254 L 148.824 607.659 L 85 640.861 L 21.176 607.659 L 21.176 541.254 Z" fill="rgba(148, 201, 169, 0.55)"/>
  <path d="M 235 568.051 L 298.824 601.254 L 298.824 667.659 L 235 700.861 L 171.176 667.659 L 171.176 601.254 Z" fill="rgba(148, 201, 169, 0.55)"/>
  <path d="M 385 628.051 L 448.824 661.254 L 448.824 727.659 L 385 760.861 L 321.176 727.659 L 321.176 661.254 Z" fill="rgba(148, 201, 169, 0.55)"/>
  <path d="M 535 688.051 L 598.824 721.254 L 598.824 787.659 L 535 820.861 L 471.176 787.659 L 471.176 721.254 Z" fill="rgba(148, 201, 169, 0.55)"/>
  <path d="M 685 748.051 L 748.824 781.254 L 748.824 847.659 L 685 880.861 L 621.176 847.659 L 621.176 781.254 Z" fill="rgba(148, 201, 169, 0.55)"/>
  <path d="M 135 158.051 L 198.824 191.254 L 198.824 257.659 L 135 290.861 L 71.176 257.659 L 71.176 191.254 Z" fill="rgba(148, 201, 169, 0.55)"/>
  <path d="M 285 218.051 L 348.824 251.254 L 348.824 317.659 L 285 350.861 L 221.176 317.659 L 221.176 251.254 Z" fill="rgba(148, 201, 169, 0.55)"/>
  <path d="M 435 278.051 L 498.824 311.254 L 498.824 377.659 L 435 410.861 L 371.176 377.659 L 371.176 311.254 Z" fill="rgba(148, 201, 169, 0.55)"/>
  <path d="M 946.793 327.379 L 1010.617 360.582 L 1010.617 426.987 L 946.793 460.189 L 882.969 426.987 L 882.969 360.582 L 946.793 327.379 Z" fill="rgba(148, 201, 169, 0.55)"/>
  <path d="M 541.224 453.432 L 605.048 486.635 L 605.048 553.04 L 541.224 586.242 L 477.4 553.04 L 477.4 486.635 L 541.224 453.432 Z" fill="rgba(148, 201, 169, 0.55)"/>
  <path d="M 318.332 453.793 L 382.156 486.996 L 382.156 553.401 L 318.332 586.603 L 254.508 553.401 L 254.508 486.996 L 318.332 453.793 Z" fill="rgba(148, 201, 169, 0.55)"/>
  <path d="M 835 728.051 L 898.824 761.254 L 898.824 827.659 L 835 860.861 L 771.176 827.659 L 771.176 761.254 Z" fill="rgba(148, 201, 169, 0.55)"/>
  <path d="M 388.413 816.886 L 452.237 850.089 L 452.237 916.494 L 388.413 949.696 L 324.589 916.494 L 324.589 850.089 L 388.413 816.886 Z" fill="rgba(148, 201, 169, 0.55)"/>
  <path d="M 735 868.051 L 798.824 901.254 L 798.824 967.659 L 735 1000.861 L 671.176 967.659 L 671.176 901.254 Z" fill="rgba(148, 201, 169, 0.55)"/>
  <path d="M 872.088 205.842 L 935.912 239.045 L 935.912 305.45 L 872.088 338.652 L 808.264 305.45 L 808.264 239.045 L 872.088 205.842 Z" fill="rgba(148, 201, 169, 0.55)"/>
  <path d="M 692.57 580.943 L 756.394 614.146 L 756.394 680.551 L 692.57 713.753 L 628.746 680.551 L 628.746 614.146 L 692.57 580.943 Z" fill="rgba(148, 201, 169, 0.55)"/>
  <path d="M 559.437 561.464 L 623.261 594.667 L 623.261 661.072 L 559.437 694.274 L 495.613 661.072 L 495.613 594.667 L 559.437 561.464 Z" fill="rgba(148, 201, 169, 0.55)"/>
  <path d="M 278.312 881.545 L 342.136 914.748 L 342.136 981.153 L 278.312 1014.355 L 214.488 981.153 L 214.488 914.748 L 278.312 881.545 Z" fill="rgba(148, 201, 169, 0.55)"/>
  <path d="M 118.673 834.557 L 182.497 867.76 L 182.497 934.165 L 118.673 967.367 L 54.849 934.165 L 54.849 867.76 L 118.673 834.557 Z" fill="rgba(148, 201, 169, 0.55)"/>
  <path d="M 500 158.051 L 563.824 191.254 L 563.824 257.659 L 500 290.861 L 436.176 257.659 L 436.176 191.254 Z" fill="rgba(148, 201, 169, 0.55)"/>
  <path d="M 600 258.051 L 663.824 291.254 L 663.824 357.659 L 600 390.861 L 536.176 357.659 L 536.176 291.254 Z" fill="rgba(148, 201, 169, 0.55)"/>
  <path d="M 700.224 449.261 L 764.048 482.464 L 764.048 548.869 L 700.224 582.071 L 636.4 548.869 L 636.4 482.464 L 700.224 449.261 Z" fill="rgba(148, 201, 169, 0.55)"/>
  <path d="M 800 458.051 L 863.824 491.254 L 863.824 557.659 L 800 590.861 L 736.176 557.659 L 736.176 491.254 Z" fill="rgba(148, 201, 169, 0.55)"/>
  <path d="M 447.187 538.171 L 511.011 571.374 L 511.011 637.779 L 447.187 670.981 L 383.363 637.779 L 383.363 571.374 L 447.187 538.171 Z" fill="rgba(148, 201, 169, 0.55)"/>
  <path d="M 249.419 95.453 L 313.243 128.656 L 313.243 195.061 L 249.419 228.263 L 185.595 195.061 L 185.595 128.656 L 249.419 95.453 Z" fill="rgba(148, 201, 169, 0.55)"/>
  <path d="M 727.31 158.051 L 791.134 191.254 L 791.134 257.659 L 727.31 290.861 L 663.486 257.659 L 663.486 191.254 L 727.31 158.051 Z" fill="rgba(148, 201, 169, 0.55)"/>
  <path d="M 769.88 260.26 L 833.704 293.463 L 833.704 359.868 L 769.88 393.07 L 706.056 359.868 L 706.056 293.463 L 769.88 260.26 Z" fill="rgba(148, 201, 169, 0.55)"/>
  <path d="M 850 358.051 L 913.824 391.254 L 913.824 457.659 L 850 490.861 L 786.176 457.659 L 786.176 391.254 Z" fill="rgba(148, 201, 169, 0.55)"/>
  <path d="M 940.395 98.392 L 1004.219 131.595 L 1004.219 198 L 940.395 231.202 L 876.571 198 L 876.571 131.595 L 940.395 98.392 Z" fill="rgba(148, 201, 169, 0.55)"/>
  <path d="M 140.762 687.368 L 204.586 720.571 L 204.586 786.976 L 140.762 820.178 L 76.938 786.976 L 76.938 720.571 L 140.762 687.368 Z" fill="rgba(148, 201, 169, 0.55)"/>
  <path d="M 262.85 748.412 L 326.674 781.615 L 326.674 848.02 L 262.85 881.222 L 199.026 848.02 L 199.026 781.615 L 262.85 748.412 Z" fill="rgba(148, 201, 169, 0.55)"/>
  <path d="M 650 858.051 L 713.824 891.254 L 713.824 957.659 L 650 990.861 L 586.176 957.659 L 586.176 891.254 Z" fill="rgba(148, 201, 169, 0.55)"/>
  <path d="M 556.83 818.403 L 620.654 851.606 L 620.654 918.011 L 556.83 951.213 L 493.006 918.011 L 493.006 851.606 L 556.83 818.403 Z" fill="rgba(148, 201, 169, 0.55)"/>
  <path d="M 936.591 491.394 L 1000.415 524.597 L 1000.415 591.002 L 936.591 624.204 L 872.767 591.002 L 872.767 524.597 L 936.591 491.394 Z" fill="rgba(148, 201, 169, 0.55)"/>
  <path d="M 848.393 602.628 L 912.217 635.831 L 912.217 702.236 L 848.393 735.438 L 784.569 702.236 L 784.569 635.831 L 848.393 602.628 Z" fill="rgba(148, 201, 169, 0.55)"/>
  <path d="M 631.27 651.648 L 695.094 684.851 L 695.094 751.256 L 631.27 784.458 L 567.446 751.256 L 567.446 684.851 L 631.27 651.648 Z" fill="rgba(148, 201, 169, 0.55)"/>
  <path d="M 432.128 721.304 L 495.952 754.507 L 495.952 820.912 L 432.128 854.114 L 368.304 820.912 L 368.304 754.507 L 432.128 721.304 Z" fill="rgba(148, 201, 169, 0.55)"/>
  <path d="M 468.072 853.031 L 531.896 886.234 L 531.896 952.639 L 468.072 985.841 L 404.248 952.639 L 404.248 886.234 L 468.072 853.031 Z" fill="rgba(148, 201, 169, 0.55)"/>
  <path d="M 872.42 838.347 L 939.445 873.215 L 939.445 942.952 L 872.42 977.819 L 805.394 942.952 L 805.394 873.215 L 872.42 838.347 Z" fill="rgba(148, 201, 169, 0.55)" style=""/>
</svg>