<?xml version="1.0" encoding="utf-8"?>
<svg viewBox="66.07 84.022 351.809 328.622" style="enable-background:new 0 0 512 512" xmlns="http://www.w3.org/2000/svg">
  <defs>
    <view id="view-1">
      <title>View 1</title>
    </view>
  </defs>
  <path d="M 79.545 318.473 C 65.522 299.799 66.188 281.088 81.542 262.341 L 131.442 201.413 C 146.795 182.666 169.159 173.256 198.535 173.183 L 294.006 172.946 C 323.381 172.873 345.079 182.174 359.102 200.848 L 404.673 261.539 C 418.695 280.214 418.029 298.925 402.675 317.672 L 352.776 378.6 C 337.423 397.347 315.058 406.757 285.683 406.83 L 190.212 407.067 C 160.836 407.14 139.137 397.839 125.116 379.164 L 79.545 318.473 Z" style="stroke-miterlimit: 1.6; paint-order: markers stroke; stroke-opacity: 0.84; stroke: rgb(212, 212, 212); transform-origin: 196.21px 271.063px; fill: rgb(253, 240, 228);"/>
  <path d="M 91.568 305.221 C 77.376 286.66 77.018 268.025 90.493 249.316 L 134.285 188.51 C 147.76 169.801 168.331 160.373 195.996 160.225 L 285.91 159.745 C 313.575 159.598 334.504 168.805 348.695 187.366 L 394.814 247.692 C 409.006 266.253 409.364 284.889 395.889 303.598 L 352.097 364.403 C 338.622 383.112 318.051 392.541 290.386 392.688 L 200.472 393.168 C 172.807 393.316 151.878 384.109 137.687 365.547 L 91.568 305.221 Z" style="stroke-miterlimit: 1.6; paint-order: markers stroke; stroke-opacity: 0.84; stroke: rgb(213, 213, 213); transform-origin: 196.21px 271.063px; fill: rgb(179, 137, 99);"/>
  <path d="M 103.202 280.107 C 90.106 264.037 89.796 247.898 102.272 231.692 L 142.819 179.021 C 155.294 162.815 174.318 154.644 199.89 154.507 L 282.999 154.064 C 308.57 153.927 327.904 161.894 341.001 177.963 L 383.563 230.191 C 396.659 246.261 396.969 262.399 384.493 278.606 L 343.947 331.277 C 331.471 347.483 312.447 355.654 286.875 355.79 L 203.766 356.234 C 178.194 356.37 158.86 348.404 145.764 332.334 L 103.202 280.107 Z" style="paint-order: stroke markers; stroke: rgb(255, 255, 255); transform-origin: 196.21px 271.063px; fill: rgb(118, 39, 17);"/>
</svg>