<?xml version="1.0" encoding="utf-8"?>
<svg viewBox="18.683 39.36 351.551 306.111" xmlns="http://www.w3.org/2000/svg">
  <path d="M 57.023 224.899 C 44.044 201.926 43.738 178.855 56.102 155.686 L 96.289 80.388 C 108.653 57.222 127.51 45.54 152.854 45.345 L 235.226 44.71 C 260.571 44.517 279.734 55.905 292.714 78.879 L 334.9 153.539 C 347.879 176.513 348.185 199.585 335.823 222.754 L 295.634 298.052 C 283.269 321.217 264.413 332.9 239.068 333.094 L 156.695 333.73 C 131.351 333.925 112.188 322.535 99.209 299.562 L 57.023 224.899 Z" style="paint-order: stroke markers; stroke: rgb(255, 255, 255); transform-origin: -160.648px 139.492px; fill: rgb(233, 104, 47);"/>
  <g id="SVGRepo_bgCarrier" stroke-width="0" transform="matrix(1, 0, 0, 1, 19.522739, -58.788013)"/>
  <g id="SVGRepo_tracerCarrier" stroke-linecap="round" stroke-linejoin="round" transform="matrix(1, 0, 0, 1, 19.522739, -58.788013)"/>
  <g id="SVGRepo_iconCarrier" transform="matrix(0.448325, 0, -0.000605, 0.373005, -54.603619, 129.547211)" style="transform-origin: 246.155px -34.171px;">
    <g>
      <path class="st0" d="M 367.983 174.562 L 367.995 227.689 C 367.99 264.346 355.601 297.443 335.497 321.567 C 315.359 345.656 287.741 360.508 257.14 360.508 C 226.537 360.508 198.903 345.656 178.754 321.567 C 158.64 297.441 146.235 264.346 146.216 227.689 L 146.204 174.562 L 113.481 174.562 L 113.493 227.689 C 113.544 315.967 169.248 388.732 240.786 398.504 L 240.808 491.604 L 273.531 491.604 L 273.51 398.504 C 345.032 388.732 400.704 315.967 400.718 227.689 L 400.706 174.562 L 367.983 174.562 Z" style="fill: rgb(255, 255, 255);"/>
      <path class="st0" d="M 256.92 317.408 C 304.315 317.408 342.866 282.725 342.856 240.105 L 342.822 86.271 C 342.813 43.651 304.247 8.967 256.851 8.967 C 209.454 8.967 170.89 43.651 170.899 86.271 L 170.933 240.106 C 170.943 282.725 209.524 317.408 256.92 317.408 Z" style="fill: rgb(255, 255, 255);"/>
    </g>
  </g>
</svg>