<?xml version="1.0" encoding="utf-8"?>
<svg viewBox="66.07 33.008 351.503 337.184" style="enable-background:new 0 0 512 512" xmlns="http://www.w3.org/2000/svg">
  <path d="M 77.634 282.126 C 63.612 264.015 64.278 245.87 79.632 227.689 L 129.531 168.602 C 144.884 150.421 167.249 141.296 196.624 141.225 L 292.095 140.995 C 321.47 140.925 343.169 149.944 357.191 168.055 L 402.762 226.912 C 416.784 245.022 416.119 263.167 400.765 281.348 L 350.865 340.435 C 335.512 358.615 313.148 367.741 283.772 367.812 L 188.301 368.042 C 158.925 368.112 137.227 359.092 123.205 340.983 L 77.634 282.126 Z" style="fill: rgb(212, 212, 212); stroke-miterlimit: 1.6; paint-order: markers stroke; stroke-opacity: 0.84; stroke: rgb(212, 212, 212); transform-origin: 197.21px 237.069px;"/>
  <path d="M 89.657 266.028 C 75.466 248.39 75.108 230.683 88.583 212.905 L 132.375 155.128 C 145.85 137.35 166.42 128.391 194.086 128.251 L 283.999 127.795 C 311.665 127.654 332.593 136.403 346.784 154.041 L 392.904 211.362 C 407.095 229 407.453 246.707 393.978 264.485 L 350.186 322.263 C 336.711 340.041 316.141 348.999 288.475 349.14 L 198.562 349.596 C 170.896 349.736 149.968 340.987 135.776 323.35 L 89.657 266.028 Z" style="fill: rgb(255, 255, 255); stroke-miterlimit: 1.6; paint-order: markers stroke; stroke-opacity: 0.84; stroke: rgb(213, 213, 213); transform-origin: 197.21px 234.473px;"/>
  <path d="M 101.292 248.156 C 88.196 232.086 87.886 215.948 100.361 199.741 L 140.908 147.07 C 153.384 130.864 172.408 122.693 197.98 122.557 L 281.088 122.113 C 306.66 121.977 325.994 129.943 339.09 146.013 L 381.653 198.24 C 394.748 214.31 395.058 230.449 382.583 246.655 L 342.036 299.326 C 329.561 315.532 310.537 323.703 284.965 323.84 L 201.856 324.283 C 176.284 324.42 156.95 316.453 143.854 300.384 L 101.292 248.156 Z" style="fill: rgb(233, 104, 47); paint-order: stroke markers; stroke: rgba(216, 115, 52, 0.96); transform-origin: 197.21px 240.063px;"/>
</svg>