<?xml version="1.0" encoding="utf-8"?>
<svg viewBox="31.955 87.527 364.046 249.794" xmlns="http://www.w3.org/2000/svg">
  <path d="M 55.635 107.986 C 55.635 107.986 250.492 108.77 341.615 108.228 C 346.382 108.199 355.2 97.299 361.367 91.085 C 362.067 90.379 364.939 88.237 367.112 88.262 C 369.497 88.29 370.329 89.741 370.45 90.523 C 371.682 98.46 372.705 107.906 372.828 107.902 C 386.13 107.487 395.671 119.672 395.671 134.09 L 395.671 311.076 C 395.671 325.493 385.46 337.18 372.862 337.18 L 55.635 337.18 C 43.038 337.18 32.826 325.493 32.826 311.076 L 32.826 134.09 C 32.826 119.672 43.038 107.986 55.635 107.986 Z" style="stroke: rgb(255, 255, 255); fill: rgb(54, 154, 188);"/>
</svg>