<?xml version="1.0" encoding="utf-8"?>
<svg viewBox="76.75 188.139 185.396 82.529" xmlns="http://www.w3.org/2000/svg">
  <defs>
    <view id="view-1">
      <title>View 1</title>
    </view>
  </defs>
  <path d="M 106.237 195 C 106.237 195 106.237 265 106.237 265 C 106.337 265 101.237 267 101.237 267 C 101.237 267 96.237 265 96.237 265 C 96.237 265 96.437 195 96.237 195 L 101.237 192 C 101.337 192 106.237 195 106.237 195 Z" style="stroke-linejoin: round; stroke-linecap: round; fill: rgb(255, 207, 31); stroke: rgb(0, 150, 208); stroke-width: 2px;"/>
  <path d="M 118.744 206.989 L 118.744 253.389 C 118.844 253.389 113.744 254.715 113.744 254.715 L 108.744 253.389 C 108.744 253.389 108.875 207.402 108.744 206.989 L 113.744 205 C 113.844 205 118.744 206.989 118.744 206.989 Z" style="stroke-linejoin: round; stroke-linecap: round; fill: rgb(255, 207, 31); stroke: rgb(0, 150, 208); stroke-width: 2px;"/>
  <path d="M 130.876 195 C 130.876 195 130.876 265 130.876 265 C 130.976 265 125.876 267 125.876 267 C 125.876 267 120.876 265 120.876 265 C 120.876 265 121.076 195 120.876 195 L 125.876 192 C 125.976 192 130.876 195 130.876 195 Z" style="stroke-linejoin: round; stroke-linecap: round; fill: rgb(255, 207, 31); stroke: rgb(0, 150, 208); stroke-width: 2px;"/>
  <path d="M 143.383 206.989 L 143.383 253.389 C 143.483 253.389 138.383 254.715 138.383 254.715 L 133.383 253.389 C 133.383 253.389 133.514 207.402 133.383 206.989 L 138.383 205 C 138.483 205 143.383 206.989 143.383 206.989 Z" style="stroke-linejoin: round; stroke-linecap: round; fill: rgb(255, 207, 31); stroke: rgb(0, 150, 208); stroke-width: 2px;"/>
  <path d="M 156.12 195 C 156.12 195 156.12 265 156.12 265 C 156.22 265 151.12 267 151.12 267 C 151.12 267 146.12 265 146.12 265 C 146.12 265 146.32 195 146.12 195 L 151.12 192 C 151.22 192 156.12 195 156.12 195 Z" style="stroke-linejoin: round; stroke-linecap: round; stroke: rgb(0, 150, 208); stroke-width: 2px; fill: rgb(233, 104, 47);"/>
  <path d="M 168.627 206.989 L 168.627 253.389 C 168.727 253.389 163.627 254.715 163.627 254.715 L 158.627 253.389 C 158.627 253.389 158.758 207.402 158.627 206.989 L 163.627 205 C 163.727 205 168.627 206.989 168.627 206.989 Z" style="stroke-linejoin: round; stroke-linecap: round; fill: rgb(255, 207, 31); stroke: rgb(0, 150, 208); stroke-width: 2px;"/>
  <path d="M 180.759 195 C 180.759 195 180.759 265 180.759 265 C 180.859 265 175.759 267 175.759 267 C 175.759 267 170.759 265 170.759 265 C 170.759 265 170.959 195 170.759 195 L 175.759 192 C 175.859 192 180.759 195 180.759 195 Z" style="stroke-linejoin: round; stroke-linecap: round; fill: rgb(255, 207, 31); stroke: rgb(0, 150, 208); stroke-width: 2px;"/>
  <path d="M 193.266 206.989 L 193.266 253.389 C 193.366 253.389 188.266 254.715 188.266 254.715 L 183.266 253.389 C 183.266 253.389 183.397 207.402 183.266 206.989 L 188.266 205 C 188.366 205 193.266 206.989 193.266 206.989 Z" style="stroke-linejoin: round; stroke-linecap: round; fill: rgb(255, 207, 31); stroke: rgb(0, 150, 208); stroke-width: 2px;"/>
  <path d="M 205.933 195 C 205.933 195 205.933 265 205.933 265 C 206.033 265 200.933 267 200.933 267 C 200.933 267 195.933 265 195.933 265 C 195.933 265 196.133 195 195.933 195 L 200.933 192 C 201.033 192 205.933 195 205.933 195 Z" style="stroke-linejoin: round; stroke-linecap: round; fill: rgb(255, 207, 31); stroke: rgb(0, 150, 208); stroke-width: 2px;"/>
  <path d="M 218.44 206.989 L 218.44 253.389 C 218.54 253.389 213.44 254.715 213.44 254.715 L 208.44 253.389 C 208.44 253.389 208.571 207.402 208.44 206.989 L 213.44 205 C 213.54 205 218.44 206.989 218.44 206.989 Z" style="stroke-linejoin: round; stroke-linecap: round; fill: rgb(255, 207, 31); stroke: rgb(0, 150, 208); stroke-width: 2px;"/>
  <path d="M 230.572 195 C 230.572 195 230.572 265 230.572 265 C 230.672 265 225.572 267 225.572 267 C 225.572 267 220.572 265 220.572 265 C 220.572 265 220.772 195 220.572 195 L 225.572 192 C 225.672 192 230.572 195 230.572 195 Z" style="stroke-linejoin: round; stroke-linecap: round; fill: rgb(255, 207, 31); stroke: rgb(0, 150, 208); stroke-width: 2px;"/>
  <path d="M 243.079 206.989 L 243.079 253.389 C 243.179 253.389 238.079 254.715 238.079 254.715 L 233.079 253.389 C 233.079 253.389 233.21 207.402 233.079 206.989 L 238.079 205 C 238.179 205 243.079 206.989 243.079 206.989 Z" style="stroke-linejoin: round; stroke-linecap: round; fill: rgb(255, 207, 31); stroke: rgb(0, 150, 208); stroke-width: 2px;"/>
</svg>